<svg width="30" height="30" viewBox="0 0 30 30" fill="none" xmlns="http://www.w3.org/2000/svg">
<path d="M22.9688 0H7.03125C3.148 0 0 3.148 0 7.03125V22.9688C0 26.852 3.148 30 7.03125 30H22.9688C26.852 30 30 26.852 30 22.9688V7.03125C30 3.148 26.852 0 22.9688 0Z" fill="#0277BD"/>
<path d="M6.29918 12.0294L6.63457 15.7726H15.0112V12.0294H6.29918ZM15.0111 4.45312H5.625L5.96531 8.19633H15.0111V4.45312ZM15.0111 25.6454V21.7509L14.9947 21.7553L10.8259 20.6297L10.5594 17.6442H6.8018L7.32621 23.5216L14.9939 25.6502L15.0111 25.6454Z" fill="#EBEBEB"/>
<path d="M19.6076 15.7726L19.173 20.6272L14.9982 21.7541V25.6484L22.672 23.5216L22.7283 22.8892L23.6079 13.0346L23.6992 12.0294L24.375 4.45312H14.9982V8.19633H20.2727L19.9322 12.0294H14.9982V15.7726H19.6076Z" fill="white"/>
</svg>
