<svg width="30" height="30" viewBox="0 0 30 30" fill="none" xmlns="http://www.w3.org/2000/svg">
<g clip-path="url(#clip0_21_98)">
<path d="M22.9688 0H7.03125C3.148 0 0 3.148 0 7.03125V22.9688C0 26.852 3.148 30 7.03125 30H22.9688C26.852 30 30 26.852 30 22.9688V7.03125C30 3.148 26.852 0 22.9688 0Z" fill="#E14E1D"/>
<path d="M5.625 4.45312L6.63398 15.7726H19.6078L19.1725 20.6277L14.9952 21.7571L10.8258 20.6293L10.547 17.5119H6.78984L7.32715 23.5214L14.9944 25.6509L22.6713 23.5214L23.7006 12.0299H10.0575L9.71496 8.19668H24.0397L24.375 4.45312H5.625Z" fill="white"/>
<path d="M15 4.45312H5.625L6.63398 15.7726H15V12.0299H10.0575L9.71496 8.19668H15V4.45312ZM15 21.7555L14.9952 21.7571L10.8258 20.6293L10.547 17.5119H6.78984L7.32715 23.5214L14.9944 25.6509L15.0001 25.6493V21.7555H15Z" fill="#EBEBEB"/>
</g>
<defs>
<clipPath id="clip0_21_98">
<rect width="30" height="30" fill="white"/>
</clipPath>
</defs>
</svg>
