<svg width="21" height="20" viewBox="0 0 21 20" fill="none" xmlns="http://www.w3.org/2000/svg">
<path d="M13.4295 18.3557V15.9641C13.4608 15.5667 13.4071 15.1672 13.272 14.7922C13.137 14.4172 12.9236 14.0753 12.6462 13.7891C15.2629 13.4974 18.0129 12.5057 18.0129 7.95574C18.0126 6.79226 17.5651 5.67341 16.7629 4.83074C17.1427 3.81283 17.1159 2.6877 16.6879 1.68908C16.6879 1.68908 15.7045 1.39741 13.4295 2.92241C11.5195 2.40476 9.50618 2.40476 7.59619 2.92241C5.32119 1.39741 4.33786 1.68908 4.33786 1.68908C3.90984 2.6877 3.88298 3.81283 4.26286 4.83074C3.45463 5.67966 3.00663 6.80863 3.01286 7.98074C3.01286 12.4974 5.76286 13.4891 8.37952 13.8141C8.10536 14.0974 7.89391 14.4352 7.75895 14.8057C7.62399 15.1761 7.56853 15.5708 7.59619 15.9641V18.3557" stroke="#178582" stroke-width="1.25" stroke-linecap="round" stroke-linejoin="round"/>
<path d="M7.59619 16.689C5.09619 17.4998 3.01286 16.689 1.76286 14.189" stroke="#178582" stroke-width="1.25" stroke-linecap="round" stroke-linejoin="round"/>
</svg>
