<svg width="21" height="20" viewBox="0 0 21 20" fill="none" xmlns="http://www.w3.org/2000/svg">
<path d="M15.9295 2.5C16.3716 2.5 16.7955 2.67559 17.108 2.98816C17.4206 3.30072 17.5962 3.72464 17.5962 4.16667V15.8333C17.5962 16.2754 17.4206 16.6993 17.108 17.0118C16.7955 17.3244 16.3716 17.5 15.9295 17.5H4.26286C3.82083 17.5 3.39691 17.3244 3.08435 17.0118C2.77179 16.6993 2.59619 16.2754 2.59619 15.8333V4.16667C2.59619 3.72464 2.77179 3.30072 3.08435 2.98816C3.39691 2.67559 3.82083 2.5 4.26286 2.5H15.9295ZM15.5129 15.4167V11C15.5129 10.2795 15.2266 9.5885 14.7172 9.07903C14.2077 8.56955 13.5167 8.28333 12.7962 8.28333C12.0879 8.28333 11.2629 8.71667 10.8629 9.36667V8.44167H8.53786V15.4167H10.8629V11.3083C10.8629 10.6667 11.3795 10.1417 12.0212 10.1417C12.3306 10.1417 12.6274 10.2646 12.8461 10.4834C13.0649 10.7022 13.1879 10.9989 13.1879 11.3083V15.4167H15.5129ZM5.82952 7.13333C6.20083 7.13333 6.55692 6.98583 6.81947 6.72328C7.08203 6.46073 7.22953 6.10464 7.22953 5.73333C7.22953 4.95833 6.60452 4.325 5.82952 4.325C5.45601 4.325 5.0978 4.47338 4.83368 4.73749C4.56957 5.0016 4.42119 5.35982 4.42119 5.73333C4.42119 6.50833 5.05452 7.13333 5.82952 7.13333ZM6.98786 15.4167V8.44167H4.67952V15.4167H6.98786Z" fill="#178582"/>
</svg>
