<svg width="30" height="30" viewBox="0 0 30 30" fill="none" xmlns="http://www.w3.org/2000/svg">
<g clip-path="url(#clip0_21_94)">
<path d="M22.9688 0H7.03125C3.148 0 0 3.148 0 7.03125V22.9688C0 26.852 3.148 30 7.03125 30H22.9688C26.852 30 30 26.852 30 22.9688V7.03125C30 3.148 26.852 0 22.9688 0Z" fill="#F0DB4F"/>
<path d="M7.88812 25.0702L10.1838 23.6808C10.6268 24.4661 11.0297 25.1305 11.9961 25.1305C12.9225 25.1305 13.5066 24.7682 13.5066 23.3586V13.7729H16.3259V23.3985C16.3259 26.3185 14.6142 27.6476 12.1169 27.6476C9.86167 27.6476 8.55257 26.4796 7.888 25.0699M17.8571 24.7681L20.1526 23.439C20.7569 24.4259 21.5423 25.1508 22.9317 25.1508C24.1 25.1508 24.8448 24.5667 24.8448 23.7612C24.8448 22.7946 24.0796 22.4522 22.7907 21.8885L22.0861 21.5863C20.0521 20.7205 18.7028 19.633 18.7028 17.3373C18.7028 15.2228 20.3139 13.6117 22.8312 13.6117C24.6234 13.6117 25.9123 14.2361 26.8385 15.8672L24.6435 17.2769C24.1601 16.411 23.6367 16.0686 22.8312 16.0686C22.0055 16.0686 21.4819 16.5922 21.4819 17.2769C21.4819 18.1226 22.0055 18.465 23.2137 18.9887L23.9184 19.2907C26.3148 20.3179 27.6641 21.3648 27.6641 23.7209C27.6641 26.2585 25.6705 27.6478 22.9922 27.6478C20.3743 27.6478 18.6827 26.3993 17.8571 24.7681Z" fill="#323330"/>
</g>
<defs>
<clipPath id="clip0_21_94">
<rect width="30" height="30" fill="white"/>
</clipPath>
</defs>
</svg>
