<svg width="101" height="58" viewBox="0 0 101 58" fill="none" xmlns="http://www.w3.org/2000/svg">
<path d="M22.2461 42.1899C23.8861 42.0899 25.6461 42.2599 27.5261 42.6999C29.4261 43.1599 30.9161 43.3899 31.9961 43.3899C33.0761 43.3899 33.8761 43.1599 34.3961 42.6999C34.9361 42.2399 35.2061 41.6599 35.2061 40.9599H35.8061C35.8061 43.2599 35.4961 44.9799 34.8761 46.1199C34.2561 47.2799 33.1261 47.8599 31.4861 47.8599C30.1061 47.8599 28.7461 47.2599 27.4061 46.0599C26.8461 45.5599 26.2861 45.0599 25.7261 44.5599C24.3861 43.3599 23.0561 42.7599 21.7361 42.7599C20.8961 42.7599 20.0261 43.1099 19.1261 43.8099L18.7961 43.2699C19.4361 42.7099 20.0661 42.2999 20.6861 42.0399C21.3061 41.7999 21.7461 41.6399 22.0061 41.5599C22.3661 41.4199 23.0361 41.2299 24.0161 40.9899C27.4361 39.9699 29.1461 36.8799 29.1461 31.7199C29.1461 29.0399 28.7161 26.9999 27.8561 25.5999C27.0161 24.1999 25.9561 23.4999 24.6761 23.4999C23.4161 23.4999 22.4061 24.2099 21.6461 25.6299C20.8861 27.0299 20.5061 28.9599 20.5061 31.4199C20.5061 33.8799 20.8261 35.7899 21.4661 37.1499C22.1261 38.4899 23.0961 39.1599 24.3761 39.1599V39.7599C21.6761 39.7599 19.5461 39.0899 17.9861 37.7499C16.4261 36.4099 15.6461 34.4399 15.6461 31.8399C15.6461 29.2399 16.4761 27.0999 18.1361 25.4199C19.7961 23.7399 21.9861 22.8999 24.7061 22.8999C27.4261 22.8999 29.6561 23.7399 31.3961 25.4199C33.1361 27.0999 34.0061 29.2099 34.0061 31.7499C34.0061 33.2299 33.6961 34.5699 33.0761 35.7699C32.4761 36.9699 31.6261 37.9799 30.5261 38.7999C28.3461 40.4199 25.5861 41.5099 22.2461 42.0699V42.1899Z" fill="#178582"/>
<path d="M40.4715 40H32.9715V39.4H34.4715V23.7999H32.9715V23.2H40.4715C41.9515 23.2 43.2815 23.45 44.4615 23.95C45.6615 24.43 46.6315 25.07 47.3715 25.87C48.8715 27.53 49.6215 29.41 49.6215 31.51C49.6215 34.35 48.8715 36.48 47.3715 37.9C45.8715 39.3 43.5715 40 40.4715 40ZM38.9715 39.4C41.1315 39.4 42.6915 38.82 43.6515 37.66C44.6115 36.48 45.0915 34.57 45.0915 31.93C45.0915 29.27 44.5715 27.25 43.5315 25.87C42.4915 24.49 40.9715 23.7999 38.9715 23.7999V39.4Z" fill="#178582"/>
<path d="M66.1741 32.6001H66.9741V41.0001H48.6141V40.2001L59.9341 19.4001H57.3741C54.8941 19.4001 53.1474 19.8401 52.1341 20.7201C51.1207 21.6001 50.6141 23.4268 50.6141 26.2001H49.8141V18.6001H66.6941V19.4001L55.2141 40.2001H59.4141C60.6674 40.2001 61.6807 40.1201 62.4541 39.9601C63.2274 39.7734 63.9207 39.4268 64.5341 38.9201C65.6274 37.9601 66.1741 35.8534 66.1741 32.6001Z" fill="#178582"/>
<path d="M74.0223 40.8399C73.009 40.8399 72.1423 40.4799 71.4223 39.7599C70.7023 39.0399 70.3423 38.1732 70.3423 37.1599C70.3423 36.1199 70.7023 35.2399 71.4223 34.5199C72.1423 33.7999 73.009 33.4399 74.0223 33.4399C75.0623 33.4399 75.9423 33.7999 76.6623 34.5199C77.3823 35.2399 77.7423 36.1199 77.7423 37.1599C77.7423 38.1732 77.3823 39.0399 76.6623 39.7599C75.9423 40.4799 75.0623 40.8399 74.0223 40.8399Z" fill="#178582"/>
<path d="M42.8681 46.7999V46.9999H40.2381V46.7999H40.8281L40.1581 45.4099H38.1381L37.5581 46.7999H38.3481V46.9999H36.6381V46.7999H37.3081L39.5981 41.2999H39.8481L42.3881 46.7999H42.8681ZM38.2281 45.1999H40.0581L39.0781 43.1599L38.2281 45.1999ZM48.6139 46.7999H49.1139V46.9999H46.6139V46.7999H47.1139V43.9999C47.1139 43.5266 47.0439 43.1899 46.9039 42.9899C46.7639 42.7899 46.5539 42.6899 46.2739 42.6899C45.8939 42.6899 45.5905 42.8899 45.3639 43.2899V46.7999H45.8639V46.9999H43.3639V46.7999H43.8639V42.5999H43.3639V42.3999H45.3639V42.9199C45.4905 42.7466 45.6872 42.5999 45.9539 42.4799C46.2272 42.3532 46.5205 42.2899 46.8339 42.2899C48.0205 42.2899 48.6139 42.9332 48.6139 44.2199V46.7999ZM51.6492 42.5999V45.0399C51.6492 45.6132 51.6725 45.9632 51.7192 46.0899C51.7658 46.2099 51.8158 46.3132 51.8692 46.3999C51.9692 46.5732 52.1425 46.6599 52.3892 46.6599C52.6425 46.6599 52.8192 46.6266 52.9192 46.5599V46.7599C52.5992 46.9866 52.2492 47.0999 51.8692 47.0999C51.3092 47.0999 50.8825 46.9666 50.5892 46.6999C50.2958 46.4332 50.1492 45.9566 50.1492 45.2699V42.5999H49.4092V42.3999H50.1492C50.4692 42.3466 50.7525 42.1932 50.9992 41.9399C51.2458 41.6799 51.4158 41.3232 51.5092 40.8699H51.6492V42.3999H52.8092V42.5999H51.6492ZM55.0725 46.3999C55.2191 46.7332 55.4725 46.8999 55.8325 46.8999C56.1925 46.8999 56.4491 46.7299 56.6025 46.3899C56.7558 46.0499 56.8325 45.4899 56.8325 44.7099C56.8325 43.9232 56.7558 43.3599 56.6025 43.0199C56.4491 42.6732 56.1925 42.4999 55.8325 42.4999C55.4725 42.4999 55.2191 42.6732 55.0725 43.0199C54.9258 43.3599 54.8525 43.9232 54.8525 44.7099C54.8525 45.4966 54.9258 46.0599 55.0725 46.3999ZM55.8125 47.0999C55.1791 47.0999 54.6058 46.8932 54.0925 46.4799C53.5791 46.0666 53.3225 45.4799 53.3225 44.7199C53.3225 44.3132 53.3958 43.9499 53.5425 43.6299C53.6958 43.3099 53.8958 43.0566 54.1425 42.8699C54.3958 42.6832 54.6658 42.5432 54.9525 42.4499C55.2391 42.3499 55.5325 42.2999 55.8325 42.2999C56.1325 42.2999 56.4258 42.3499 56.7125 42.4499C57.0058 42.5432 57.2758 42.6832 57.5225 42.8699C57.7758 43.0566 57.9791 43.3099 58.1325 43.6299C58.2858 43.9499 58.3625 44.3099 58.3625 44.7099C58.3625 45.1099 58.2858 45.4666 58.1325 45.7799C57.9791 46.0932 57.7758 46.3432 57.5225 46.5299C57.0158 46.9099 56.4458 47.0999 55.8125 47.0999ZM61.067 46.7999H61.567V46.9999H59.067V46.7999H59.567V42.5999H59.167V42.3999H61.067V46.7999ZM61.157 41.0799C61.157 41.3199 61.0703 41.5266 60.897 41.6999C60.7303 41.8666 60.5237 41.9499 60.277 41.9499C60.037 41.9499 59.8303 41.8666 59.657 41.6999C59.4837 41.5266 59.397 41.3199 59.397 41.0799C59.397 40.8332 59.4837 40.6232 59.657 40.4499C59.8303 40.2766 60.037 40.1899 60.277 40.1899C60.5237 40.1899 60.7303 40.2766 60.897 40.4499C61.0703 40.6232 61.157 40.8332 61.157 41.0799ZM67.5201 46.7999H68.0201V46.9999H65.5201V46.7999H66.0201V43.9999C66.0201 43.5266 65.9501 43.1899 65.8101 42.9899C65.6701 42.7899 65.4601 42.6899 65.1801 42.6899C64.8001 42.6899 64.4968 42.8899 64.2701 43.2899V46.7999H64.7701V46.9999H62.2701V46.7999H62.7701V42.5999H62.2701V42.3999H64.2701V42.9199C64.3968 42.7466 64.5935 42.5999 64.8601 42.4799C65.1335 42.3532 65.4268 42.2899 65.7401 42.2899C66.9268 42.2899 67.5201 42.9332 67.5201 44.2199V46.7999ZM73.1354 44.9999H70.1154C70.1821 46.1732 70.6388 46.7599 71.4854 46.7599C71.7121 46.7599 71.9688 46.7066 72.2554 46.5999C72.5488 46.4932 72.7621 46.3432 72.8954 46.1499L73.0354 46.2499C72.8888 46.4966 72.6388 46.6999 72.2854 46.8599C71.9321 47.0199 71.5788 47.0999 71.2254 47.0999C70.8788 47.0999 70.5654 47.0666 70.2854 46.9999C70.0054 46.9266 69.7321 46.8066 69.4654 46.6399C69.1988 46.4732 68.9888 46.2232 68.8354 45.8899C68.6888 45.5566 68.6154 45.1532 68.6154 44.6799C68.6154 43.8732 68.8388 43.2766 69.2854 42.8899C69.7321 42.4966 70.2721 42.2999 70.9054 42.2999C71.5454 42.2999 72.0754 42.5132 72.4954 42.9399C72.9221 43.3666 73.1354 44.0532 73.1354 44.9999ZM70.1054 44.7999H71.7354C71.7354 44.1866 71.6688 43.6499 71.5354 43.1899C71.4088 42.7299 71.2021 42.4999 70.9154 42.4999C70.6288 42.4999 70.4221 42.7232 70.2954 43.1699C70.1688 43.6099 70.1054 44.1166 70.1054 44.6899V44.7999Z" fill="#178582"/>
</svg>