<svg width="30" height="30" viewBox="0 0 30 30" fill="none" xmlns="http://www.w3.org/2000/svg">
<g clip-path="url(#clip0_21_112)">
<path d="M22.9688 0H7.03125C3.148 0 0 3.148 0 7.03125V22.9688C0 26.852 3.148 30 7.03125 30H22.9688C26.852 30 30 26.852 30 22.9688V7.03125C30 3.148 26.852 0 22.9688 0Z" fill="#777BB3"/>
<path d="M5.7607 11.7476H9.08977C10.0669 11.7558 10.7749 12.0375 11.2139 12.5923C11.6529 13.147 11.7977 13.9048 11.6487 14.8655C11.5908 15.3045 11.4623 15.735 11.2636 16.1573C11.073 16.5797 10.8082 16.9605 10.4686 17.3002C10.0545 17.7307 9.61148 18.004 9.13945 18.12C8.66742 18.236 8.17875 18.2939 7.67367 18.2939H6.18305L5.71102 20.6541H3.98438L5.7607 11.7476ZM7.21406 13.1637L6.46875 16.8902C6.51844 16.8984 6.56813 16.9027 6.61781 16.9027H6.79172C7.58672 16.9109 8.2493 16.8323 8.77922 16.6666C9.30914 16.4927 9.66539 15.8883 9.8475 14.853C9.99656 13.9835 9.8475 13.4824 9.40031 13.35C8.96133 13.2176 8.41078 13.1555 7.7482 13.1637C7.64883 13.1719 7.55367 13.1761 7.4625 13.1761H7.20164L7.21406 13.1637ZM13.6155 9.375H15.3298L14.8453 11.7476H16.3856C17.2303 11.7642 17.8596 11.9381 18.2738 12.2693C18.6961 12.6005 18.8203 13.23 18.6464 14.1574L17.8141 18.2939H16.0751L16.8701 14.3438C16.9528 13.9296 16.928 13.6357 16.7955 13.4618C16.6631 13.2879 16.3774 13.2009 15.9384 13.2009L14.5596 13.1885L13.541 18.2939H11.8268L13.6155 9.375ZM20.4872 11.7476H23.8162C24.7934 11.7558 25.5014 12.0375 25.9404 12.5923C26.3794 13.147 26.5242 13.9048 26.3752 14.8655C26.3173 15.3045 26.1888 15.735 25.9901 16.1573C25.7995 16.5797 25.5347 16.9605 25.1951 17.3002C24.7809 17.7307 24.338 18.004 23.8659 18.12C23.3939 18.236 22.9052 18.2939 22.4002 18.2939H20.9095L20.4375 20.6541H18.7109L20.4872 11.7476ZM21.9405 13.1637L21.1952 16.8902C21.2449 16.8984 21.2946 16.9027 21.3443 16.9027H21.5182C22.3132 16.9109 22.9758 16.8323 23.5057 16.6666C24.0356 16.4927 24.3919 15.8883 24.574 14.853C24.723 13.9835 24.574 13.4824 24.1268 13.35C23.6878 13.2176 23.1373 13.1555 22.4747 13.1637C22.3753 13.1719 22.2802 13.1761 22.189 13.1761H21.9281L21.9405 13.1637Z" fill="white"/>
</g>
<defs>
<clipPath id="clip0_21_112">
<rect width="30" height="30" fill="white"/>
</clipPath>
</defs>
</svg>
