<svg width="30" height="30" viewBox="0 0 30 30" fill="none" xmlns="http://www.w3.org/2000/svg">
<g clip-path="url(#clip0_21_130)">
<path d="M22.9688 0H7.03125C3.148 0 0 3.148 0 7.03125V22.9688C0 26.852 3.148 30 7.03125 30H22.9688C26.852 30 30 26.852 30 22.9688V7.03125C30 3.148 26.852 0 22.9688 0Z" fill="#242938"/>
<path d="M15.0001 17.2208C16.2076 17.2208 17.1864 16.2419 17.1864 15.0345C17.1864 13.8271 16.2076 12.8483 15.0001 12.8483C13.7927 12.8483 12.8139 13.8271 12.8139 15.0345C12.8139 16.2419 13.7927 17.2208 15.0001 17.2208Z" fill="#00D8FF"/>
<path d="M15.0002 10.5894C17.9355 10.5894 20.6624 11.0105 22.7184 11.7185C25.1957 12.5712 26.7188 13.8639 26.7188 15.0345C26.7188 16.2543 25.1046 17.6276 22.4443 18.509C20.4332 19.1753 17.7866 19.5231 15.0002 19.5231C12.1434 19.5231 9.43816 19.1967 7.40426 18.5016C4.83105 17.6221 3.28125 16.2311 3.28125 15.0345C3.28125 13.8734 4.73555 12.5907 7.17797 11.7392C9.24164 11.0197 12.0357 10.5894 14.9998 10.5894H15.0002Z" stroke="#00D8FF" stroke-width="1.04426"/>
<path d="M11.1306 12.8248C12.5971 10.282 14.3241 8.13023 15.9645 6.70289C17.9407 4.98293 19.8216 4.30933 20.8355 4.89398C21.8921 5.50336 22.2755 7.58789 21.71 10.3327C21.2829 12.4077 20.2617 14.874 18.8696 17.2878C17.4424 19.7626 15.8082 21.943 14.1902 23.3572C12.1429 25.1469 10.1634 25.7946 9.12692 25.1968C8.12109 24.6172 7.73649 22.7163 8.21906 20.1751C8.62676 18.0279 9.64992 15.3925 11.1301 12.8248H11.1306Z" stroke="#00D8FF" stroke-width="1.04426"/>
<path d="M11.1342 17.2942C9.66363 14.7543 8.66238 12.183 8.24449 10.049C7.74141 7.4778 8.09707 5.51198 9.11016 4.92557C10.1659 4.31432 12.1631 5.0233 14.2587 6.88401C15.843 8.29073 17.47 10.4068 18.866 12.8183C20.2973 15.2907 21.3701 17.7956 21.7874 19.9035C22.3154 22.5712 21.888 24.6094 20.8525 25.2089C19.8477 25.7906 18.0089 25.1748 16.0482 23.4875C14.3917 22.062 12.6193 19.8595 11.1342 17.2942Z" stroke="#00D8FF" stroke-width="1.04426"/>
</g>
<defs>
<clipPath id="clip0_21_130">
<rect width="30" height="30" fill="white"/>
</clipPath>
</defs>
</svg>
