<svg width="30" height="30" viewBox="0 0 30 30" fill="none" xmlns="http://www.w3.org/2000/svg">
<g clip-path="url(#clip0_21_125)">
<path d="M22.9688 0H7.03125C3.148 0 0 3.148 0 7.03125V22.9688C0 26.852 3.148 30 7.03125 30H22.9688C26.852 30 30 26.852 30 22.9688V7.03125C30 3.148 26.852 0 22.9688 0Z" fill="#242938"/>
<path d="M15 26.7188C21.472 26.7188 26.7188 21.472 26.7188 15C26.7188 8.52797 21.472 3.28125 15 3.28125C8.52797 3.28125 3.28125 8.52797 3.28125 15C3.28125 21.472 8.52797 26.7188 15 26.7188Z" fill="white"/>
<path d="M20.1233 7.61745C18.9328 7.65893 17.8936 8.31507 17.1203 9.2228C16.2638 10.218 15.694 11.3983 15.2835 12.6032C14.5489 12.0013 13.9825 11.222 12.8043 10.8823C11.8936 10.621 10.9371 10.7288 10.0575 11.3842C9.6409 11.6955 9.35379 12.166 9.21727 12.6082C8.86383 13.7575 9.58887 14.7804 9.91816 15.1477L10.6382 15.9192C10.7865 16.0707 11.1441 16.4652 10.9693 17.031C10.7804 17.6464 10.0389 18.0446 9.27797 17.8099C8.93813 17.7062 8.45004 17.4531 8.55949 17.0967C8.60461 16.9508 8.70891 16.8419 8.76492 16.7159C8.81613 16.6075 8.84074 16.5263 8.85633 16.4786C8.99531 16.0247 8.80535 15.4343 8.31938 15.2846C7.86586 15.1456 7.4018 15.2556 7.22203 15.8396C7.01801 16.5028 7.33535 17.7066 9.03574 18.2309C11.0278 18.843 12.713 17.7583 12.9519 16.3436C13.1025 15.4575 12.7024 14.7993 11.9694 13.9525L11.3722 13.2921C11.0105 12.9306 10.8863 12.3147 11.2607 11.8414C11.5766 11.442 12.0265 11.2715 12.7635 11.4719C13.8391 11.764 14.3187 12.5104 15.1187 13.1123C14.7884 14.1959 14.5725 15.2835 14.3771 16.2587L14.258 16.9859C13.686 19.9858 13.2495 21.633 12.115 22.5787C11.8864 22.7411 11.5596 22.9845 11.0671 23.0015C10.8089 23.0094 10.7256 22.8318 10.722 22.7544C10.7159 22.5733 10.8684 22.4902 10.97 22.4086C11.1217 22.3259 11.3509 22.1887 11.3354 21.7492C11.3188 21.2301 10.8887 20.7797 10.267 20.8003C9.80121 20.8163 9.09129 21.2546 9.11801 22.0569C9.14578 22.8856 9.91816 23.5067 11.0827 23.4673C11.7052 23.446 13.0954 23.1925 14.4653 21.5641C16.0597 19.6973 16.5056 17.5572 16.8411 15.9908L17.2155 13.923C17.4236 13.9478 17.646 13.9644 17.8879 13.9702C19.8738 14.0121 20.8671 12.9833 20.8819 12.2352C20.8917 11.7824 20.5848 11.3369 20.1551 11.3469C19.8475 11.3556 19.4611 11.5603 19.3683 11.9857C19.2777 12.4032 20.0002 12.7798 19.4354 13.1455C19.0343 13.4051 18.315 13.5882 17.3021 13.4394L17.4864 12.4216C17.8622 10.4912 18.3259 8.11678 20.0846 8.05901C20.2129 8.05257 20.6818 8.06487 20.6927 8.37495C20.696 8.47854 20.6704 8.50503 20.5489 8.74221C20.4255 8.92702 20.3789 9.0844 20.3848 9.26534C20.4016 9.75823 20.7765 10.0821 21.3184 10.0627C22.0443 10.0392 22.253 9.33261 22.241 8.96968C22.2117 8.11714 21.313 7.57854 20.1233 7.61745Z" fill="#242938"/>
</g>
<defs>
<clipPath id="clip0_21_125">
<rect width="30" height="30" fill="white"/>
</clipPath>
</defs>
</svg>
